<svg class="diagram-root" style="background: #f5f6f6" xmlns="http://www.w3.org/2000/svg" xmlns:xlink="http://www.w3.org/1999/xlink"><style>.diagram-root { font-family: "Helvetica Neue", sans-serif; font-size: 12px; } .t { overflow: visible; } .t-bg { y: 40; fill: #fff;   } .th { fill: #005aa0;   } .tht { fill: #fff; font-size: 14px;  } .tf { fill: #323c46; overflow: visible; } .tf.pk { fill: #005aa0; font-weight: bold; } .tf.fk { font-weight: bold; } .ty { fill: #adb1b5; font-weight: normal; text-anchor: end; } .r { fill: transparent; stroke: #c3c3c3; stroke-width: 1; } .l { stroke: 1; } .i { fill: #c2c7ce; stroke: #c2c7ce; } .i.ix { fill: #afb3b6; stroke: #000; } .fa { fill: transparent; overflow: visible; } .fa .bg.hover { fill: #f7f7f7; } .c { cy: 12; r: 4; stroke: #d2d2dc; fill: #d2d2dc; } .hr { fill: transparent; stroke: #323c46; stroke-opacity: 0.035; stroke-width: 13; } .dc { stroke: #fa5a3c; fill: #fa5a3c; } .x { stroke: white; stroke-width: 1; } .hl .th { fill: #1b9bff; } .hl .tht {  } .fhl .bg { fill: #e7f4ff; } .fhls .bg {  } .r.hl { stroke: #1b9bff; } .dim { opacity: 0.25; }</style><g class="drawing-wrapper" transform="translate(184.78999999999996, 274.8242857142857) scale(1,1)"><g class="rs"><path d="M -160.53714285714284 -162.82428571428565 m -1, 0 a 1,1 0 1,0 2,0 a 1,1 0 1,0 -2,0 M -160.53714285714284 -162.82428571428565 m -0.5, 0 a 0.5,0.5 0 1,0 1,0 a 0.5,0.5 0 1,0 -1,0  M-160.53714285714284 -162.82428571428565 L-160.53714285714284 -162.82428571428565 -172.53714285714284 -162.82428571428565 M -160.53714285714284 -156.82428571428565 m -1, 0 a 1,1 0 1,0 2,0 a 1,1 0 1,0 -2,0 M -160.53714285714284 -156.82428571428565 m -0.5, 0 a 0.5,0.5 0 1,0 1,0 a 0.5,0.5 0 1,0 -1,0  M-160.53714285714284 -156.82428571428565 L-160.53714285714284 -156.82428571428565 -167.53714285714284 -162.82428571428565 -160.53714285714284 -168.82428571428565 M -160.53714285714284 -168.82428571428565 m -1, 0 a 1,1 0 1,0 2,0 a 1,1 0 1,0 -2,0 M -160.53714285714284 -168.82428571428565 m -0.5, 0 a 0.5,0.5 0 1,0 1,0 a 0.5,0.5 0 1,0 -1,0  M-172.53714285714284 -162.82428571428565 C -226.14171428571427 -162.82428571428565, -224.79 35.67, -174.79 35.67 M -162.79 35.67 m -1, 0 a 1,1 0 1,0 2,0 a 1,1 0 1,0 -2,0 M -162.79 35.67 m -0.5, 0 a 0.5,0.5 0 1,0 1,0 a 0.5,0.5 0 1,0 -1,0  M-162.79 35.67 L-162.79 35.67 -174.79 35.67 M-168.79 41.67 L-168.79 41.67 -168.79 29.67" id="h2624643775" class="r"></path><path d="M -2.91 -62.82428571428565 m -1, 0 a 1,1 0 1,0 2,0 a 1,1 0 1,0 -2,0 M -2.91 -62.82428571428565 m -0.5, 0 a 0.5,0.5 0 1,0 1,0 a 0.5,0.5 0 1,0 -1,0  M-2.91 -62.82428571428565 L-2.91 -62.82428571428565 9.09 -62.82428571428565 M3.09 -56.82428571428565 L3.09 -56.82428571428565 3.09 -68.82428571428565 M9.09 -62.82428571428565 Q 48.58 -62.82428571428565, 88.07 -38.4 T 167.04 -13.969999999999999 M 179.04 -13.969999999999999 m -1, 0 a 1,1 0 1,0 2,0 a 1,1 0 1,0 -2,0 M 179.04 -13.969999999999999 m -0.5, 0 a 0.5,0.5 0 1,0 1,0 a 0.5,0.5 0 1,0 -1,0  M179.04 -13.969999999999999 L179.04 -13.969999999999999 167.04 -13.969999999999999 M 179.04 -7.969999999999999 m -1, 0 a 1,1 0 1,0 2,0 a 1,1 0 1,0 -2,0 M 179.04 -7.969999999999999 m -0.5, 0 a 0.5,0.5 0 1,0 1,0 a 0.5,0.5 0 1,0 -1,0  M179.04 -7.969999999999999 L179.04 -7.969999999999999 172.04 -13.969999999999999 179.04 -19.97 M 179.04 -19.97 m -1, 0 a 1,1 0 1,0 2,0 a 1,1 0 1,0 -2,0 M 179.04 -19.97 m -0.5, 0 a 0.5,0.5 0 1,0 1,0 a 0.5,0.5 0 1,0 -1,0 " id="h2262965837" class="r"></path><path d="M 468.61 306.08 m -1, 0 a 1,1 0 1,0 2,0 a 1,1 0 1,0 -2,0 M 468.61 306.08 m -0.5, 0 a 0.5,0.5 0 1,0 1,0 a 0.5,0.5 0 1,0 -1,0  M468.61 306.08 L468.61 306.08 456.61 306.08 M 468.61 312.08 m -1, 0 a 1,1 0 1,0 2,0 a 1,1 0 1,0 -2,0 M 468.61 312.08 m -0.5, 0 a 0.5,0.5 0 1,0 1,0 a 0.5,0.5 0 1,0 -1,0  M468.61 312.08 L468.61 312.08 461.61 306.08 468.61 300.08 M 468.61 300.08 m -1, 0 a 1,1 0 1,0 2,0 a 1,1 0 1,0 -2,0 M 468.61 300.08 m -0.5, 0 a 0.5,0.5 0 1,0 1,0 a 0.5,0.5 0 1,0 -1,0  M456.61 306.08 Q 424.56 306.08, 392.51 146.06 T 328.41 -13.969999999999999 M 316.41 -13.969999999999999 m -1, 0 a 1,1 0 1,0 2,0 a 1,1 0 1,0 -2,0 M 316.41 -13.969999999999999 m -0.5, 0 a 0.5,0.5 0 1,0 1,0 a 0.5,0.5 0 1,0 -1,0  M316.41 -13.969999999999999 L316.41 -13.969999999999999 328.41 -13.969999999999999 M322.41 -7.969999999999999 L322.41 -7.969999999999999 322.41 -19.97" id="h1474924959" class="r"></path><path d="M 648.34 -95.47 m -1, 0 a 1,1 0 1,0 2,0 a 1,1 0 1,0 -2,0 M 648.34 -95.47 m -0.5, 0 a 0.5,0.5 0 1,0 1,0 a 0.5,0.5 0 1,0 -1,0  M648.34 -95.47 L648.34 -95.47 660.34 -95.47 M 648.34 -89.47 m -1, 0 a 1,1 0 1,0 2,0 a 1,1 0 1,0 -2,0 M 648.34 -89.47 m -0.5, 0 a 0.5,0.5 0 1,0 1,0 a 0.5,0.5 0 1,0 -1,0  M648.34 -89.47 L648.34 -89.47 655.34 -95.47 648.34 -101.47 M 648.34 -101.47 m -1, 0 a 1,1 0 1,0 2,0 a 1,1 0 1,0 -2,0 M 648.34 -101.47 m -0.5, 0 a 0.5,0.5 0 1,0 1,0 a 0.5,0.5 0 1,0 -1,0  M660.34 -95.47 C 724.7080000000001 -95.47, 719.32 131.07999999999998, 669.32 131.07999999999998 M 657.32 131.07999999999998 m -1, 0 a 1,1 0 1,0 2,0 a 1,1 0 1,0 -2,0 M 657.32 131.07999999999998 m -0.5, 0 a 0.5,0.5 0 1,0 1,0 a 0.5,0.5 0 1,0 -1,0  M657.32 131.07999999999998 L657.32 131.07999999999998 669.32 131.07999999999998 M663.32 137.07999999999998 L663.32 137.07999999999998 663.32 125.07999999999998" id="h1852534939" class="r"></path><path d="M 487.72 -70.47 m -1, 0 a 1,1 0 1,0 2,0 a 1,1 0 1,0 -2,0 M 487.72 -70.47 m -0.5, 0 a 0.5,0.5 0 1,0 1,0 a 0.5,0.5 0 1,0 -1,0  M487.72 -70.47 L487.72 -70.47 475.72 -70.47 M 487.72 -64.47 m -1, 0 a 1,1 0 1,0 2,0 a 1,1 0 1,0 -2,0 M 487.72 -64.47 m -0.5, 0 a 0.5,0.5 0 1,0 1,0 a 0.5,0.5 0 1,0 -1,0  M487.72 -64.47 L487.72 -64.47 480.72 -70.47 487.72 -76.47 M 487.72 -76.47 m -1, 0 a 1,1 0 1,0 2,0 a 1,1 0 1,0 -2,0 M 487.72 -76.47 m -0.5, 0 a 0.5,0.5 0 1,0 1,0 a 0.5,0.5 0 1,0 -1,0  M475.72 -70.47 Q 438.9 -70.47, 402.07 -42.22 T 328.41 -13.969999999999999 M 316.41 -13.969999999999999 m -1, 0 a 1,1 0 1,0 2,0 a 1,1 0 1,0 -2,0 M 316.41 -13.969999999999999 m -0.5, 0 a 0.5,0.5 0 1,0 1,0 a 0.5,0.5 0 1,0 -1,0  M316.41 -13.969999999999999 L316.41 -13.969999999999999 328.41 -13.969999999999999 M322.41 -7.969999999999999 L322.41 -7.969999999999999 322.41 -19.97" id="h3363681451" class="r"></path><path d="M 22.61 135.67000000000002 m -1, 0 a 1,1 0 1,0 2,0 a 1,1 0 1,0 -2,0 M 22.61 135.67000000000002 m -0.5, 0 a 0.5,0.5 0 1,0 1,0 a 0.5,0.5 0 1,0 -1,0  M22.61 135.67000000000002 L22.61 135.67000000000002 34.61 135.67000000000002 M 22.61 141.67000000000002 m -1, 0 a 1,1 0 1,0 2,0 a 1,1 0 1,0 -2,0 M 22.61 141.67000000000002 m -0.5, 0 a 0.5,0.5 0 1,0 1,0 a 0.5,0.5 0 1,0 -1,0  M22.61 141.67000000000002 L22.61 141.67000000000002 29.61 135.67000000000002 22.61 129.67000000000002 M 22.61 129.67000000000002 m -1, 0 a 1,1 0 1,0 2,0 a 1,1 0 1,0 -2,0 M 22.61 129.67000000000002 m -0.5, 0 a 0.5,0.5 0 1,0 1,0 a 0.5,0.5 0 1,0 -1,0  M34.61 135.67000000000002 Q 140.11 135.67000000000002, 245.61 133.38 T 456.61 131.07999999999998 M 468.61 131.07999999999998 m -1, 0 a 1,1 0 1,0 2,0 a 1,1 0 1,0 -2,0 M 468.61 131.07999999999998 m -0.5, 0 a 0.5,0.5 0 1,0 1,0 a 0.5,0.5 0 1,0 -1,0  M468.61 131.07999999999998 L468.61 131.07999999999998 456.61 131.07999999999998 M462.61 137.07999999999998 L462.61 137.07999999999998 462.61 125.07999999999998" id="h2334776111" class="r"></path><path d="M 22.61 160.67000000000002 m -1, 0 a 1,1 0 1,0 2,0 a 1,1 0 1,0 -2,0 M 22.61 160.67000000000002 m -0.5, 0 a 0.5,0.5 0 1,0 1,0 a 0.5,0.5 0 1,0 -1,0  M22.61 160.67000000000002 L22.61 160.67000000000002 34.61 160.67000000000002 M 22.61 166.67000000000002 m -1, 0 a 1,1 0 1,0 2,0 a 1,1 0 1,0 -2,0 M 22.61 166.67000000000002 m -0.5, 0 a 0.5,0.5 0 1,0 1,0 a 0.5,0.5 0 1,0 -1,0  M22.61 166.67000000000002 L22.61 166.67000000000002 29.61 160.67000000000002 22.61 154.67000000000002 M 22.61 154.67000000000002 m -1, 0 a 1,1 0 1,0 2,0 a 1,1 0 1,0 -2,0 M 22.61 154.67000000000002 m -0.5, 0 a 0.5,0.5 0 1,0 1,0 a 0.5,0.5 0 1,0 -1,0  M34.61 160.67000000000002 Q 67.72 160.67000000000002, 100.82 73.35 T 167.04 -13.969999999999999 M 179.04 -13.969999999999999 m -1, 0 a 1,1 0 1,0 2,0 a 1,1 0 1,0 -2,0 M 179.04 -13.969999999999999 m -0.5, 0 a 0.5,0.5 0 1,0 1,0 a 0.5,0.5 0 1,0 -1,0  M179.04 -13.969999999999999 L179.04 -13.969999999999999 167.04 -13.969999999999999 M173.04 -7.969999999999999 L173.04 -7.969999999999999 173.04 -19.97" id="h8129909" class="r"></path></g><g class="hrs"></g><g class="ts"><svg width="137.37" height="175" x="179.04" y="-70.97" id="h1537667952" class="t"><rect height="40" width="137.37" class="th"></rect><text x="13" y="25" class="tht">User</text><rect height="135" width="137.37" class="t-bg"></rect><text x="13" y="61" class="tf pk">userId<tspan x="124.37" class="ty">int</tspan></text><path d="M7,14A2,2 0 0,1 5,12A2,2 0 0,1 7,10A2,2 0 0,1 9,12A2,2 0 0,1 7,14M12.65,10C11.83,7.67 9.61,6 7, 6A6, 6 0 0, 0 1, 12A6, 6 0 0, 0 7, 18C9.61, 18 11.83, 16.33 12.65, 14H17V18H21V14H23V10H12.65Z" class="i pk" transform="translate(91.696171875, 48) scale(0.65)"></path><text x="13" y="86" class="tf">name<tspan x="124.37" class="ty">varchar(20)</tspan></text><text x="13" y="111" class="tf">email<tspan x="124.37" class="ty">varchar(30)</tspan></text><text x="13" y="136" class="tf">password<tspan x="124.37" class="ty">varchar</tspan></text><text x="13" y="161" class="tf">isActive<tspan x="124.37" class="ty">bool</tspan></text></svg><svg width="188.71" height="250" x="468.61" y="74.08" id="h202149960" class="t"><rect height="40" width="188.71" class="th"></rect><text x="13" y="25" class="tht">Project</text><rect height="210" width="188.71" class="t-bg"></rect><text x="13" y="61" class="tf pk">projectId<tspan x="175.71" class="ty">int</tspan></text><path d="M7,14A2,2 0 0,1 5,12A2,2 0 0,1 7,10A2,2 0 0,1 9,12A2,2 0 0,1 7,14M12.65,10C11.83,7.67 9.61,6 7, 6A6, 6 0 0, 0 1, 12A6, 6 0 0, 0 7, 18C9.61, 18 11.83, 16.33 12.65, 14H17V18H21V14H23V10H12.65Z" class="i pk" transform="translate(143.036171875, 48) scale(0.65)"></path><text x="13" y="86" class="tf">projectName<tspan x="175.71" class="ty">varchar(20)</tspan></text><text x="13" y="111" class="tf">customerId<tspan x="175.71" class="ty">int</tspan></text><text x="13" y="136" class="tf">customerName<tspan x="175.71" class="ty">varchar(20)</tspan></text><text x="13" y="161" class="tf">vertical<tspan x="175.71" class="ty">varchar(20)</tspan></text><text x="13" y="186" class="tf">horizontal</text><text x="13" y="211" class="tf">subHorizontal</text><text x="13" y="236" class="tf fk">managerId</text></svg><svg width="160.62" height="150" x="487.72" y="-177.47" id="h4043089876" class="t"><rect height="40" width="160.62" class="th"></rect><text x="13" y="25" class="tht">User_Project_relation</text><rect height="110" width="160.62" class="t-bg"></rect><text x="13" y="61" class="tf pk">id</text><path d="M7,14A2,2 0 0,1 5,12A2,2 0 0,1 7,10A2,2 0 0,1 9,12A2,2 0 0,1 7,14M12.65,10C11.83,7.67 9.61,6 7, 6A6, 6 0 0, 0 1, 12A6, 6 0 0, 0 7, 18C9.61, 18 11.83, 16.33 12.65, 14H17V18H21V14H23V10H12.65Z" class="i pk" transform="translate(132.62, 48) scale(0.65)"></path><text x="13" y="86" class="tf fk">projectId</text><text x="13" y="111" class="tf fk">resourseId</text><text x="13" y="136" class="tf">expectedHours<tspan x="147.62" class="ty">int</tspan></text></svg><svg width="185.4" height="350" x="-162.79" y="-21.33" id="h2139702304" class="t"><rect height="40" width="185.4" class="th"></rect><text x="13" y="25" class="tht">WorkingHours</text><rect height="310" width="185.4" class="t-bg"></rect><text x="13" y="61" class="tf pk">id</text><path d="M7,14A2,2 0 0,1 5,12A2,2 0 0,1 7,10A2,2 0 0,1 9,12A2,2 0 0,1 7,14M12.65,10C11.83,7.67 9.61,6 7, 6A6, 6 0 0, 0 1, 12A6, 6 0 0, 0 7, 18C9.61, 18 11.83, 16.33 12.65, 14H17V18H21V14H23V10H12.65Z" class="i pk" transform="translate(157.4, 48) scale(0.65)"></path><text x="13" y="86" class="tf">timesheetNo<tspan x="172.4" class="ty">int</tspan></text><text x="13" y="111" class="tf">periodStart<tspan x="172.4" class="ty">dateTime</tspan></text><text x="13" y="136" class="tf">periodEnd<tspan x="172.4" class="ty">dateTime</tspan></text><text x="13" y="161" class="tf fk">projectId</text><text x="13" y="186" class="tf fk">resourseId</text><text x="13" y="211" class="tf">hours<tspan x="172.4" class="ty">int</tspan></text><text x="13" y="236" class="tf">isActive<tspan x="172.4" class="ty">bool</tspan></text><text x="13" y="261" class="tf">createdOn<tspan x="172.4" class="ty">datetime</tspan></text><text x="13" y="286" class="tf">isApproved<tspan x="172.4" class="ty">bool</tspan></text><text x="13" y="311" class="tf">responseText<tspan x="172.4" class="ty">varchar(100)</tspan></text><text x="13" y="336" class="tf">time<tspan x="172.4" class="ty">datetime</tspan></text></svg><svg width="157.63" height="200" x="-160.53714285714284" y="-244.82428571428565" id="h418663406" class="t"><rect height="40" width="157.63" class="th"></rect><text x="13" y="25" class="tht">RequestLog</text><rect height="160" width="157.63" class="t-bg"></rect><text x="13" y="61" class="tf pk">id<tspan x="144.63" class="ty">long</tspan></text><path d="M7,14A2,2 0 0,1 5,12A2,2 0 0,1 7,10A2,2 0 0,1 9,12A2,2 0 0,1 7,14M12.65,10C11.83,7.67 9.61,6 7, 6A6, 6 0 0, 0 1, 12A6, 6 0 0, 0 7, 18C9.61, 18 11.83, 16.33 12.65, 14H17V18H21V14H23V10H12.65Z" class="i pk" transform="translate(101.9425, 48) scale(0.65)"></path><text x="13" y="86" class="tf fk">workingHourId</text><text x="13" y="111" class="tf">responseText<tspan x="144.63" class="ty">String</tspan></text><text x="13" y="136" class="tf">isApproved<tspan x="144.63" class="ty">bool</tspan></text><text x="13" y="161" class="tf">changedOn<tspan x="144.63" class="ty">dateTime</tspan></text><text x="13" y="186" class="tf fk">changedBy</text></svg></g></g><text class="qdbd-link" x="10" y="20">www.quickdatabasediagrams.com</text></svg>